HIERARCHY
ROOT Hips
{
   OFFSET 0.00000 0.00000 0.00000
   CHANNELS 6 Xposition Yposition Zposition Zrotation Xrotation Yrotation
   JOINT RightUpLeg
   {
      OFFSET -8.945800 -8.667070 0.101652
      CHANNELS 3 Zrotation Xrotation Yrotation
      JOINT RightLeg
      {
         OFFSET 0.000000 -44.422697 1.372700
         CHANNELS 3 Zrotation Xrotation Yrotation
         JOINT RightFoot
         {
            OFFSET 0.253549 -42.092399 -1.460590
            CHANNELS 3 Zrotation Xrotation Yrotation
            JOINT RightToes
            {
               OFFSET 0.040000 -4.415090 8.499099
               CHANNELS 3 Zrotation Xrotation Yrotation
               End Site
               {
                  OFFSET -0.080000 -0.137448 9.779790
               }
            }
         }
      }
   }
   JOINT Spine
   {
      OFFSET 0.000000 11.890501 0.000000
      CHANNELS 3 Zrotation Xrotation Yrotation
      JOINT Spine1
      {
         OFFSET 0.000000 25.657401 0.127663
         CHANNELS 3 Zrotation Xrotation Yrotation
         JOINT HEad
         {
            OFFSET 0.000000 8.734161 0.011341
            CHANNELS 3 Zrotation Xrotation Yrotation
            End Site
            {
               OFFSET -0.290000 12.774200 2.513950
            }
         }
         JOINT LeftShoulder1
         {
            OFFSET 8.990000 -0.362252 -0.220000
            CHANNELS 3 Zrotation Xrotation Yrotation
            JOINT LeftArm
            {
               OFFSET 10.282700 -0.003380 0.322123
               CHANNELS 3 Zrotation Xrotation Yrotation
               JOINT LeftForeArm
               {
                  OFFSET 32.766900 0.099144 -1.424340
                  CHANNELS 3 Zrotation Xrotation Yrotation
                  JOINT LeftHand
                  {
                     OFFSET 27.564301 0.085362 1.022160
                     CHANNELS 3 Zrotation Xrotation Yrotation
                     End Site
                     {
                        OFFSET 16.744301 -0.600000 1.502910
                     }
                  }
               }
            }
         }
         JOINT RightShoulder
         {
            OFFSET -8.990000 -0.362252 -0.220000
            CHANNELS 3 Zrotation Xrotation Yrotation
            JOINT RightArm
            {
               OFFSET -10.282700 -0.003380 0.322123
               CHANNELS 3 Zrotation Xrotation Yrotation
               JOINT RightForeArm
               {
                  OFFSET -32.897098 0.099144 -1.424340
                  CHANNELS 3 Zrotation Xrotation Yrotation
                  JOINT RightHand
                  {
                     OFFSET -27.492101 0.085362 1.022160
                     CHANNELS 3 Zrotation Xrotation Yrotation
                     End Site
                     {
                        OFFSET -16.631201 -0.600000 1.502910
                     }
                  }
               }
            }
         }
      }
   }
   JOINT LeftUpLeg
   {
      OFFSET 8.945800 -8.667070 0.101652
      CHANNELS 3 Zrotation Xrotation Yrotation
      JOINT LeftLeg
      {
         OFFSET 0.000000 -44.422697 1.372700
         CHANNELS 3 Zrotation Xrotation Yrotation
         JOINT LeftFoot
         {
            OFFSET -0.253549 -42.092399 -1.460590
            CHANNELS 3 Zrotation Xrotation Yrotation
            JOINT LeftToes
            {
               OFFSET -0.040000 -4.415090 8.499099
               CHANNELS 3 Zrotation Xrotation Yrotation
               End Site
               {
                  OFFSET 0.080000 -0.047448 9.779790
               }
            }
         }
      }
   }
}
MOTION
Frames: 7
Frame Time: 0.016667
4.38462 102.785 -43.2874 16.0283 15.2482 162.569 12.2122 25.7308 -10.1763 21.2467 31.487 -28.1912 -30.6567 2.74403 -1.61041 0.0462048 0.000533403 0.662642 3.20573 11.2624 -4.18917 3.74772e-006 -0.0012894 -0.0171924 9.31947 -1.10455 -25.974 1.19271e-015 0 3.18055e-015 -140.564 -41.3421 -105.192 -123.524 30.5897 4.14748 27.2557 22.0406 -26.2236 15.0535 8.64654 -0.893453 130.633 -33.8074 103.817 51.7392 50.0762 34.5494 14.9413 28.9858 4.39509 16.3875 -9.16004 -24.3539 -37.6891 12.3356 75.857 20.5687 -2.96985 1.4612 -1.80354e-010 1.55988e-007 -4.8394e-009 
4.69729 103.949 -43.2993 19.0927 18.6318 167.285 14.2607 22.4998 -16.4352 24.4041 37.8034 -21.0982 -28.1307 2.03272 -1.91966 0.0462048 0.000533403 0.662642 5.54489 14.7848 -7.83797 -0.00401521 -0.0012894 -0.0184574 11.4994 4.33686 -25.806 1.39149e-015 1.59028e-015 -0 -138.335 -41.0557 -100.528 -124.516 32.027 4.20612 27.292 22.1178 -25.8435 18.2301 8.20669 -3.27321 128.146 -36.3348 103.337 51.0993 49.926 35.9524 17.3704 28.8701 -23.9065 17.6382 -6.62728 -30.5517 -37.1592 11.6323 75.3785 23.2366 -2.92886 1.6812 -1.80353e-010 1.55988e-007 -4.8394e-009 
4.85238 105.206 -43.7215 21.9781 21.0668 170.565 13.7173 18.0969 -21.7007 27.7388 43.6501 -15.5131 -29.2823 1.19212 -1.85693 0.0462048 0.000533403 0.662642 7.73291 17.486 -10.7162 -0.0155142 -0.0012894 -0.0220542 14.0733 10.9664 -25.4462 1.39149e-015 7.95139e-016 -0 -135.639 -40.9875 -95.6781 -125.645 33.1434 4.269 27.3911 21.7649 -25.6518 21.7428 8.02823 -6.14655 125.564 -38.183 102.943 47.6942 48.9226 35.9251 18.2468 29.0576 -1.40386 19.4123 -4.81261 -35.7766 -36.8096 11.0878 75.5561 25.326 -3.35791 2.2006 -1.80354e-010 1.55988e-007 -4.83939e-009 
4.81591 106.585 -44.6445 25.1954 21.9238 171.846 9.82023 12.9045 -25.9358 32.2708 49.567 -12.1254 -29.3649 -0.447067 -1.17494 0.0462048 0.000533403 0.662642 9.70391 19.5599 -12.9036 -0.0336625 -0.0012894 -0.0277056 16.9469 17.1439 -25.5738 7.95139e-016 1.19271e-015 -0 -132.529 -41.2757 -90.4216 -122.424 30.9588 2.46014 24.1629 24.3777 -27.3963 25.5501 8.00659 -9.07334 123.017 -39.6917 102.853 45.9564 48.2765 36.347 17.0588 29.2419 -10.6809 21.6931 -3.89229 -40.1947 -36.3425 10.7097 76.7735 26.443 -3.95484 3.27946 -1.80351e-010 1.55988e-007 -4.8394e-009 
4.57555 107.87 -45.9578 28.9103 21.6074 171.432 4.31197 7.34566 -30.4074 37.6757 54.942 -10.7127 -30.7393 -1.30246 0.296616 0.0462048 0.000533403 0.662642 11.4554 21.1712 -14.4918 -0.0534603 -0.0012894 -0.0351647 20.1297 22.8169 -26.1321 3.97569e-016 7.95139e-016 -0 -128.806 -41.7241 -84.6342 -121.897 30.466 1.76846 22.5278 25.3449 -28.0866 29.573 8.08922 -12.098 120.488 -40.8734 102.966 45.188 47.9229 37.211 17.4046 29.4441 0.976757 24.3858 -3.50096 -44.034 -36.0553 10.6045 79.0753 26.6544 -4.73612 4.881 -1.80353e-010 1.55988e-007 -4.8394e-009 
4.15457 108.96 -47.5563 33.0966 20.4878 169.719 -2.10277 1.59841 -35.6368 43.9747 59.5643 -11.2593 -31.7202 -1.02464 2.30065 0.0462048 0.000533403 0.662642 13.0346 22.4493 -15.5758 -0.077037 -0.00650175 -0.0441741 23.586 27.9358 -27.0899 -3.01904e-015 1.49089e-015 -3.18055e-015 -124.396 -42.1152 -78.3149 -122.845 31.1169 1.49942 32.7552 15.1886 -17.8989 33.7282 8.21165 -15.0496 118.026 -41.8785 103.352 44.6245 47.6522 38.1975 16.798 29.6146 -5.61184 27.6654 -3.23462 -47.4224 -35.9535 9.88707 84.0254 26.5494 -5.20982 6.84001 -1.80353e-010 1.55988e-007 -4.83939e-009 
3.61228 109.754 -49.3527 37.6111 18.9028 167.129 -8.69125 -4.14321 -41.8519 50.8532 63.3256 -13.4999 -32.6239 0.552991 4.55876 0.0462048 0.000533403 0.662642 14.9834 24.5818 -16.3633 -0.0979518 0.0794836 -0.0543331 26.8329 31.2979 -27.8361 -1.59028e-015 3.97569e-016 -3.18055e-015 -120.384 -41.5567 -72.9296 -124.476 32.5466 1.30089 26.8787 19.6214 -21.3936 37.5724 7.31827 -17.4316 115.633 -42.4667 103.831 41.2363 46.9706 37.3771 16.3623 30.2772 5.91051 31.5002 -2.77995 -50.4101 -36.0695 8.97265 90.8665 25.787 -5.137 8.93279 -1.80353e-010 1.55988e-007 -4.83941e-009 
